<svg width="390" height="529" xmlns="http://www.w3.org/2000/svg" preserveAspectRatio="xMidYMid meet">
 <metadata>Created by potrace 1.13, written by Peter Selinger 2001-2015</metadata>

 <g>
  <title>background</title>
  <rect fill="none" id="canvas_background" height="402" width="582" y="-1" x="-1"/>
 </g>
 <g>
  <title>Layer 1</title>
  <g id="svg_1" fill="" transform="translate(0,529) scale(0.10000000149011612,-0.10000000149011612) ">
   <path id="svg_2" d="m1635,5275c-238,-44 -381,-184 -430,-420c-21,-99 -34,-456 -34,-940c-1,-662 20,-795 142,-930c97,-108 228,-155 429,-155c401,0 571,161 608,574c37,430 37,1267 0,1478c-17,92 -73,203 -135,263c-124,122 -351,173 -580,130zm277,-265c81,-41 116,-89 137,-187c31,-148 21,-1359 -13,-1516c-29,-131 -94,-205 -202,-227c-158,-33 -298,50 -334,197c-16,68 -26,1280 -11,1424c19,191 71,277 193,321c68,24 168,19 230,-12z"/>
   <path id="svg_3" d="m3096,5275c-234,-49 -373,-207 -405,-460c-32,-254 -30,-1440 2,-1585c26,-115 80,-222 139,-277c46,-43 141,-92 208,-107c190,-44 370,0 519,124l61,51l0,-81l0,-80l125,0l125,0l0,620l0,620l-320,0l-320,0l0,-130l0,-130l180,0l180,0l0,-199c0,-322 -18,-402 -111,-485c-62,-55 -131,-80 -224,-81c-121,0 -213,61 -251,167c-26,75 -36,382 -31,928c7,662 15,727 108,800c65,52 108,65 209,65c130,0 198,-33 241,-117c21,-42 38,-180 39,-320l0,-78l140,0l140,0l0,193c0,142 -4,209 -16,252c-39,152 -147,253 -321,301c-82,22 -327,28 -417,9z"/>
   <path id="svg_4" d="m0,4055l0,-1195l510,0l510,0l0,135l0,135l-355,0l-355,0l0,1060l0,1060l-155,0l-155,0l0,-1195z"/>
   <path id="svg_5" d="m0,1195l0,-1195l150,0l150,0l0,580l0,580l305,0l305,0l0,130l0,130l-305,0l-305,0l2,353l3,352l358,3l357,2l0,130l0,130l-510,0l-510,0l0,-1195z"/>
   <path id="svg_6" d="m1502,2208c-23,-101 -143,-622 -267,-1158c-124,-536 -230,-992 -234,-1012l-9,-38l157,0l158,0l37,213c21,116 40,220 43,230c4,16 25,17 316,15l311,-3l42,-225c24,-124 43,-226 43,-227c1,-2 73,-3 160,-3l159,0l-9,32c-4,18 -51,213 -103,433c-224,950 -447,1891 -452,1908c-5,15 -21,17 -158,17l-152,0l-42,-182zm323,-868c69,-316 127,-585 130,-597l5,-23l-260,0c-244,0 -261,1 -256,18c5,15 68,320 191,922c54,265 57,278 62,265c1,-6 59,-269 128,-585z"/>
   <path id="svg_7" d="m2680,1194l0,-1196l378,4c334,4 385,7 448,24c94,26 174,76 241,149c110,122 145,249 145,535c0,187 -15,278 -62,370c-43,84 -137,163 -225,190c-71,21 -72,22 -28,35c65,20 139,71 178,125c75,102 113,272 101,450c-11,177 -59,293 -156,384c-124,114 -186,126 -661,126l-359,0l0,-1196zm746,891c53,-28 62,-37 93,-97c30,-60 35,-78 39,-169c10,-203 -34,-319 -142,-374c-59,-30 -61,-30 -243,-33l-183,-4l0,357l0,357l188,-4c187,-3 189,-3 248,-33zm-4,-963c62,-31 120,-98 141,-163c42,-129 45,-379 6,-504c-10,-33 -32,-77 -50,-98c-63,-76 -142,-97 -369,-97l-160,0l0,446l0,446l193,-4c177,-3 196,-5 239,-26z"/>
  </g>
 </g>
</svg>